name D:\school\WTK\thesis\model\3dpredictsim\Results\MidTarsalJoint\Fal_s1_bCst_PF_Natali2010_ls150_MT_k30_MTP_T10_ig24.mot
datacolumns 128
datarows 4
range 1.18071622 1.21613771
endheader
time	pelvis_tilt	pelvis_list	pelvis_rotation	pelvis_tx	pelvis_ty	pelvis_tz	hip_flexion_l	hip_adduction_l	hip_rotation_l	hip_flexion_r	hip_adduction_r	hip_rotation_r	knee_angle_l	knee_angle_r	ankle_angle_l	ankle_angle_r	subtalar_angle_l	subtalar_angle_r	mtj_angle_l	mtj_angle_r	mtp_angle_l	mtp_angle_r	lumbar_extension	lumbar_bending	lumbar_rotation	arm_flex_l	arm_add_l	arm_rot_l	arm_flex_r	arm_add_r	arm_rot_r	elbow_flex_l	elbow_flex_r	pro_sup_l	pro_sup_r	glut_med1_l/activation	glut_med2_l/activation	glut_med3_l/activation	glut_min1_l/activation	glut_min2_l/activation	glut_min3_l/activation	semimem_l/activation	semiten_l/activation	bifemlh_l/activation	bifemsh_l/activation	sar_l/activation	add_long_l/activation	add_brev_l/activation	add_mag1_l/activation	add_mag2_l/activation	add_mag3_l/activation	tfl_l/activation	pect_l/activation	grac_l/activation	glut_max1_l/activation	glut_max2_l/activation	glut_max3_l/activation	iliacus_l/activation	psoas_l/activation	quad_fem_l/activation	gem_l/activation	peri_l/activation	rect_fem_l/activation	vas_med_l/activation	vas_int_l/activation	vas_lat_l/activation	med_gas_l/activation	lat_gas_l/activation	soleus_l/activation	tib_post_l/activation	flex_dig_l/activation	flex_hal_l/activation	tib_ant_l/activation	per_brev_l/activation	per_long_l/activation	per_tert_l/activation	ext_dig_l/activation	ext_hal_l/activation	ercspn_l/activation	intobl_l/activation	extobl_l/activation	glut_med1_r/activation	glut_med2_r/activation	glut_med3_r/activation	glut_min1_r/activation	glut_min2_r/activation	glut_min3_r/activation	semimem_r/activation	semiten_r/activation	bifemlh_r/activation	bifemsh_r/activation	sar_r/activation	add_long_r/activation	add_brev_r/activation	add_mag1_r/activation	add_mag2_r/activation	add_mag3_r/activation	tfl_r/activation	pect_r/activation	grac_r/activation	glut_max1_r/activation	glut_max2_r/activation	glut_max3_r/activation	iliacus_r/activation	psoas_r/activation	quad_fem_r/activation	gem_r/activation	peri_r/activation	rect_fem_r/activation	vas_med_r/activation	vas_int_r/activation	vas_lat_r/activation	med_gas_r/activation	lat_gas_r/activation	soleus_r/activation	tib_post_r/activation	flex_dig_r/activation	flex_hal_r/activation	tib_ant_r/activation	per_brev_r/activation	per_long_r/activation	per_tert_r/activation	ext_dig_r/activation	ext_hal_r/activation	ercspn_r/activation	intobl_r/activation	extobl_r/activation	
          1.18071622	         -2.93016918	         -2.31861392	          6.88991244	          1.47589528	          0.91421287	         -0.00320504	        -16.25214683	         -1.93254241	          5.92889593	         29.48627578	          3.09944909	         -2.09463788	         -9.99310806	         -9.29131830	         -5.53722605	          5.11960448	         10.49973446	         -9.66466470	         14.36526961	         -0.33519278	         -1.84493580	         -0.67169649	         -1.39080695	          0.15892645	         -2.72135278	          5.09453291	        -13.45063772	         14.54500135	         -9.02139789	        -13.63397714	          4.67968097	         39.17210183	         19.35838363	         86.51662706	         86.51662706	          0.19220552	          0.09047037	          0.07071475	          0.18642933	          0.15689063	          0.10933449	          0.05002927	          0.05000601	          0.05000449	          0.05000167	          0.10208569	          0.05000307	          0.05000808	          0.05001199	          0.05003011	          0.05984951	          0.26301623	          0.05001007	          0.05000560	          0.05002456	          0.05001884	          0.05001940	          0.41201010	          0.63654401	          0.05000098	          0.05000455	          0.06351142	          0.30531726	          0.08889920	          0.08869721	          0.09018619	          0.27164460	          0.36375512	          0.37465788	          0.23604558	          0.17267267	          0.24244268	          0.05000035	          0.06093163	          0.15588140	          0.05000173	          0.05000048	          0.05000167	          0.05000016	          0.06452370	          0.07016594	          0.05000019	          0.05000037	          0.05000168	          0.05000052	          0.05000054	          0.05000074	          0.21936943	          0.09751502	          0.13119992	          0.08691716	          0.05000736	          0.10767943	          0.22126007	          0.21607348	          0.16122909	          0.10333368	          0.05000246	          0.07165533	          0.12138377	          0.05000184	          0.07544862	          0.12448756	          0.05004333	          0.06451771	          0.43069616	          0.12118165	          0.05126910	          0.05983909	          0.05983954	          0.05983952	          0.05983944	          0.07104860	          0.07161513	          0.06208817	          0.06268159	          0.05984160	          0.05984818	          0.37685649	          0.22576947	          0.19327763	          0.11370914	          0.38078989	          0.17955762	          0.05000008	          0.11950358	          0.10257286	
          1.19252338	         -2.92936901	         -2.40975645	          7.23803739	          1.49387435	          0.91297280	         -0.00302824	        -16.38701309	         -2.28257985	          5.68331146	         28.83701088	          3.35156297	         -1.79930572	        -11.52554633	        -10.09773395	         -5.78050468	          4.41856963	         11.19296724	         -9.89110015	         13.16464037	         -0.54985981	         -1.16299478	         -0.55957684	         -1.15310199	          0.33151014	         -2.78522238	          4.82323354	        -13.45445335	         14.91331767	         -9.99855801	        -13.61996428	          4.83527475	         40.42023278	         18.86564601	         86.51662706	         86.51662706	          0.22952732	          0.07559515	          0.05908755	          0.24453839	          0.13109507	          0.09135747	          0.05001172	          0.05000160	          0.05000129	          0.05000152	          0.08530467	          0.05000303	          0.05000390	          0.05000410	          0.05001068	          0.05001644	          0.26876705	          0.05001628	          0.05000479	          0.05002371	          0.05001442	          0.05000912	          0.34996880	          0.64214990	          0.05000123	          0.05000507	          0.05306890	          0.27326516	          0.10909271	          0.10487040	          0.10292037	          0.22697867	          0.30394465	          0.34201715	          0.21407550	          0.14428464	          0.20258671	          0.05000043	          0.08987630	          0.16451183	          0.05000178	          0.05000068	          0.05000222	          0.05000018	          0.05391423	          0.05862880	          0.19238268	          0.17520902	          0.19705096	          0.14639199	          0.07571143	          0.14117695	          0.18329888	          0.08240488	          0.10962703	          0.10256656	          0.05308448	          0.08997418	          0.18487892	          0.18054554	          0.13472038	          0.11561202	          0.05000252	          0.05987935	          0.11184965	          0.06427680	          0.10617181	          0.10406252	          0.05001550	          0.05390987	          0.35987764	          0.10125715	          0.14824323	          0.05000021	          0.05000054	          0.05000054	          0.05000046	          0.05936628	          0.05983971	          0.05187914	          0.05237506	          0.05000308	          0.05000805	          0.47060834	          0.32989970	          0.21233970	          0.28769011	          0.48646411	          0.21685667	          0.05000032	          0.15498395	          0.08570698	
          1.20433055	         -2.92741060	         -2.49654549	          7.53637153	          1.51198970	          0.91189045	         -0.00282525	        -16.47763188	         -2.62279179	          5.45356666	         28.18373282	          3.58885402	         -1.51066416	        -13.09606663	        -10.85323540	         -6.06400692	          3.60486588	         11.78513910	        -10.11478897	         11.59847031	         -0.49992771	         -0.10949207	         -0.49307377	         -0.91721741	          0.51492684	         -2.84033946	          4.51081655	        -13.46014045	         15.25652731	        -10.94944051	        -13.60399136	          5.02352850	         41.56570825	         18.40383071	         86.51662706	         86.51662706	          0.22600189	          0.06316748	          0.05103903	          0.24637766	          0.10954108	          0.07633682	          0.05000869	          0.05000106	          0.05000093	          0.05000144	          0.08514732	          0.05000260	          0.05000252	          0.05000308	          0.05000635	          0.05000329	          0.26282510	          0.05001754	          0.05000679	          0.05003050	          0.05001763	          0.05000801	          0.31433317	          0.62820786	          0.05000523	          0.05002319	          0.05000728	          0.22833382	          0.13310518	          0.13094860	          0.12743652	          0.18965693	          0.25396772	          0.29641982	          0.19903526	          0.12056229	          0.16927838	          0.05000045	          0.10781393	          0.17213053	          0.05000181	          0.05000049	          0.05000218	          0.05565060	          0.05000010	          0.05000019	          0.26513929	          0.27371468	          0.30533316	          0.12234040	          0.16200815	          0.19461265	          0.15315935	          0.06885624	          0.09160136	          0.08570190	          0.05000228	          0.07518011	          0.15447982	          0.15086000	          0.11606310	          0.13773155	          0.05000307	          0.05003931	          0.09345972	          0.18060964	          0.16235170	          0.13830402	          0.05000056	          0.05000058	          0.30070384	          0.08460915	          0.12388770	          0.05000079	          0.07390823	          0.09166528	          0.08322521	          0.05000017	          0.05000067	          0.05000006	          0.05000041	          0.05000200	          0.05000162	          0.54239486	          0.31870645	          0.20106902	          0.41981086	          0.50675792	          0.28655291	          0.06602013	          0.13413667	          0.07161434	
          1.21613771	         -2.92505779	         -2.57787093	          7.78462320	          1.53008805	          0.91111465	         -0.00259097	        -16.49762362	         -2.95035651	          5.24698801	         27.59802650	          3.84266907	         -1.23159676	        -14.71062147	        -11.71080235	         -6.42743160	          2.80407381	         12.29070955	        -10.33730996	          9.62280689	         -0.51490587	          1.42896916	         -0.46947899	         -0.69443542	          0.71063615	         -2.88736106	          4.19055835	        -13.46379525	         15.60227913	        -11.84181543	        -13.58266630	          5.22555256	         42.56337496	         17.96026208	         86.51662706	         86.51662706	          0.23741031	          0.05278191	          0.05000116	          0.24504030	          0.09153027	          0.06378560	          0.05001193	          0.05000123	          0.05000111	          0.05000160	          0.07115677	          0.05018292	          0.05000325	          0.05000335	          0.05000683	          0.05000311	          0.21961584	          0.05023967	          0.05000635	          0.05001630	          0.05000855	          0.05000452	          0.26264818	          0.60189453	          0.05000128	          0.05000606	          0.05000338	          0.19078932	          0.11122949	          0.13742828	          0.14690650	          0.15847192	          0.21220825	          0.24767993	          0.16631240	          0.10073949	          0.14144517	          0.05000030	          0.13539286	          0.17358638	          0.05000271	          0.05908698	          0.05000165	          0.06800564	          0.05000010	          0.05000023	          0.32280959	          0.32474189	          0.35430045	          0.10229526	          0.14476334	          0.16607273	          0.12797564	          0.05754798	          0.07653999	          0.07161036	          0.05000323	          0.06281871	          0.12907937	          0.12605659	          0.11103275	          0.16069329	          0.05000209	          0.05000953	          0.07809442	          0.22820860	          0.19930537	          0.16806190	          0.05000055	          0.05000060	          0.25126008	          0.07069982	          0.10352431	          0.05000052	          0.12704513	          0.13205978	          0.11766956	          0.05000020	          0.05000043	          0.05000007	          0.05000039	          0.05000089	          0.05000088	          0.57917640	          0.30143200	          0.18802722	          0.43767726	          0.55181722	          0.29115148	          0.07456683	          0.11208126	          0.05983896	
